<?xml version="1.0" encoding="UTF-8" standalone="no"?>
<!DOCTYPE svg PUBLIC "-//W3C//DTD SVG 1.1//EN"
 "http://www.w3.org/Graphics/SVG/1.1/DTD/svg11.dtd">
<!-- Generated by graphviz version 12.2.0 (20241103.1931)
 -->
<!-- Pages: 1 -->
<svg width="324pt" height="188pt"
 viewBox="0.00 0.00 324.25 188.00" xmlns="http://www.w3.org/2000/svg" xmlns:xlink="http://www.w3.org/1999/xlink">
<g id="graph0" class="graph" transform="scale(1 1) rotate(0) translate(4 184)">
<polygon fill="white" stroke="none" points="-4,4 -4,-184 320.25,-184 320.25,4 -4,4"/>
<!-- 0 -->
<g id="node1" class="node">
<title>0</title>
<polygon fill="none" stroke="black" points="142.38,-36 88.12,-36 88.12,0 142.38,0 142.38,-36"/>
<text text-anchor="middle" x="115.25" y="-12.95" font-family="Times,serif" font-size="14.00">journal</text>
</g>
<!-- 1 -->
<g id="node2" class="node">
<title>1</title>
<polygon fill="none" stroke="black" points="70.25,-36 16.25,-36 16.25,0 70.25,0 70.25,-36"/>
<text text-anchor="middle" x="43.25" y="-12.95" font-family="Times,serif" font-size="14.00">jira</text>
</g>
<!-- 2 -->
<g id="node3" class="node">
<title>2</title>
<polygon fill="none" stroke="black" points="86.5,-180 0,-180 0,-144 86.5,-144 86.5,-180"/>
<text text-anchor="middle" x="43.25" y="-156.95" font-family="Times,serif" font-size="14.00">timesheet&#45;cli</text>
</g>
<!-- 2&#45;&gt;1 -->
<g id="edge1" class="edge">
<title>2&#45;&gt;1</title>
<path fill="none" stroke="black" d="M43.25,-143.59C43.25,-119.61 43.25,-76.14 43.25,-47.42"/>
<polygon fill="black" stroke="black" points="46.75,-47.62 43.25,-37.62 39.75,-47.62 46.75,-47.62"/>
</g>
<!-- 3 -->
<g id="node4" class="node">
<title>3</title>
<polygon fill="none" stroke="black" points="145.75,-108 84.75,-108 84.75,-72 145.75,-72 145.75,-108"/>
<text text-anchor="middle" x="115.25" y="-84.95" font-family="Times,serif" font-size="14.00">worklog</text>
</g>
<!-- 2&#45;&gt;3 -->
<g id="edge2" class="edge">
<title>2&#45;&gt;3</title>
<path fill="none" stroke="black" d="M61.05,-143.7C69.53,-135.45 79.84,-125.43 89.18,-116.35"/>
<polygon fill="black" stroke="black" points="91.59,-118.88 96.32,-109.4 86.71,-113.86 91.59,-118.88"/>
</g>
<!-- 3&#45;&gt;0 -->
<g id="edge4" class="edge">
<title>3&#45;&gt;0</title>
<path fill="none" stroke="black" d="M115.25,-71.7C115.25,-64.41 115.25,-55.73 115.25,-47.54"/>
<polygon fill="black" stroke="black" points="118.75,-47.62 115.25,-37.62 111.75,-47.62 118.75,-47.62"/>
</g>
<!-- 3&#45;&gt;1 -->
<g id="edge3" class="edge">
<title>3&#45;&gt;1</title>
<path fill="none" stroke="black" d="M97.45,-71.7C88.97,-63.45 78.66,-53.43 69.32,-44.35"/>
<polygon fill="black" stroke="black" points="71.79,-41.86 62.18,-37.4 66.91,-46.88 71.79,-41.86"/>
</g>
<!-- 4 -->
<g id="node5" class="node">
<title>4</title>
<polygon fill="none" stroke="black" points="276.12,-36 160.38,-36 160.38,0 276.12,0 276.12,-36"/>
<text text-anchor="middle" x="218.25" y="-12.95" font-family="Times,serif" font-size="14.00">secure_credentials</text>
</g>
<!-- 3&#45;&gt;4 -->
<g id="edge5" class="edge">
<title>3&#45;&gt;4</title>
<path fill="none" stroke="black" d="M140.98,-71.52C153.85,-62.76 169.63,-52.04 183.56,-42.58"/>
<polygon fill="black" stroke="black" points="185.3,-45.63 191.6,-37.11 181.36,-39.84 185.3,-45.63"/>
</g>
<!-- 5 -->
<g id="node6" class="node">
<title>5</title>
<polygon fill="none" stroke="black" points="191.88,-180 104.62,-180 104.62,-144 191.88,-144 191.88,-180"/>
<text text-anchor="middle" x="148.25" y="-156.95" font-family="Times,serif" font-size="14.00">timesheet&#45;tui</text>
</g>
<!-- 5&#45;&gt;3 -->
<g id="edge6" class="edge">
<title>5&#45;&gt;3</title>
<path fill="none" stroke="black" d="M140.09,-143.7C136.5,-136.07 132.18,-126.92 128.17,-118.4"/>
<polygon fill="black" stroke="black" points="131.39,-117.03 123.96,-109.47 125.06,-120.01 131.39,-117.03"/>
</g>
<!-- 6 -->
<g id="node7" class="node">
<title>6</title>
<polygon fill="none" stroke="black" points="316.25,-180 210.25,-180 210.25,-144 316.25,-144 316.25,-180"/>
<text text-anchor="middle" x="263.25" y="-156.95" font-family="Times,serif" font-size="14.00">timesheet&#45;server</text>
</g>
</g>
</svg>
