<?xml version="1.0" encoding="UTF-8" standalone="no"?>
<!DOCTYPE svg PUBLIC "-//W3C//DTD SVG 1.1//EN"
 "http://www.w3.org/Graphics/SVG/1.1/DTD/svg11.dtd">
<!-- Generated by graphviz version 12.2.1 (20241206.2353)
 -->
<!-- Pages: 1 -->
<svg width="324pt" height="188pt"
 viewBox="0.00 0.00 324.25 188.00" xmlns="http://www.w3.org/2000/svg" xmlns:xlink="http://www.w3.org/1999/xlink">
<g id="graph0" class="graph" transform="scale(1 1) rotate(0) translate(4 184)">
<polygon fill="white" stroke="none" points="-4,4 -4,-184 320.25,-184 320.25,4 -4,4"/>
<!-- 0 -->
<g id="node1" class="node">
<title>0</title>
<polygon fill="none" stroke="black" points="70.25,-36 16.25,-36 16.25,0 70.25,0 70.25,-36"/>
<text text-anchor="middle" x="43.25" y="-12.95" font-family="Times,serif" font-size="14.00">jira</text>
</g>
<!-- 1 -->
<g id="node2" class="node">
<title>1</title>
<polygon fill="none" stroke="black" points="86.5,-180 0,-180 0,-144 86.5,-144 86.5,-180"/>
<text text-anchor="middle" x="43.25" y="-156.95" font-family="Times,serif" font-size="14.00">timesheet&#45;cli</text>
</g>
<!-- 1&#45;&gt;0 -->
<g id="edge1" class="edge">
<title>1&#45;&gt;0</title>
<path fill="none" stroke="black" d="M43.25,-143.59C43.25,-119.61 43.25,-76.14 43.25,-47.42"/>
<polygon fill="black" stroke="black" points="46.75,-47.62 43.25,-37.62 39.75,-47.62 46.75,-47.62"/>
</g>
<!-- 2 -->
<g id="node3" class="node">
<title>2</title>
<polygon fill="none" stroke="black" points="154.75,-108 93.75,-108 93.75,-72 154.75,-72 154.75,-108"/>
<text text-anchor="middle" x="124.25" y="-84.95" font-family="Times,serif" font-size="14.00">worklog</text>
</g>
<!-- 1&#45;&gt;2 -->
<g id="edge2" class="edge">
<title>1&#45;&gt;2</title>
<path fill="none" stroke="black" d="M63.27,-143.7C73.01,-135.28 84.89,-125.02 95.56,-115.79"/>
<polygon fill="black" stroke="black" points="97.75,-118.52 103.03,-109.34 93.18,-113.23 97.75,-118.52"/>
</g>
<!-- 2&#45;&gt;0 -->
<g id="edge3" class="edge">
<title>2&#45;&gt;0</title>
<path fill="none" stroke="black" d="M104.23,-71.7C94.49,-63.28 82.61,-53.02 71.94,-43.79"/>
<polygon fill="black" stroke="black" points="74.32,-41.23 64.47,-37.34 69.75,-46.52 74.32,-41.23"/>
</g>
<!-- 3 -->
<g id="node4" class="node">
<title>3</title>
<polygon fill="none" stroke="black" points="204.12,-36 88.38,-36 88.38,0 204.12,0 204.12,-36"/>
<text text-anchor="middle" x="146.25" y="-12.95" font-family="Times,serif" font-size="14.00">secure_credentials</text>
</g>
<!-- 2&#45;&gt;3 -->
<g id="edge4" class="edge">
<title>2&#45;&gt;3</title>
<path fill="none" stroke="black" d="M129.69,-71.7C132.03,-64.24 134.83,-55.32 137.46,-46.97"/>
<polygon fill="black" stroke="black" points="140.76,-48.14 140.42,-37.55 134.08,-46.04 140.76,-48.14"/>
</g>
<!-- 4 -->
<g id="node5" class="node">
<title>4</title>
<polygon fill="none" stroke="black" points="191.88,-180 104.62,-180 104.62,-144 191.88,-144 191.88,-180"/>
<text text-anchor="middle" x="148.25" y="-156.95" font-family="Times,serif" font-size="14.00">timesheet&#45;tui</text>
</g>
<!-- 4&#45;&gt;2 -->
<g id="edge5" class="edge">
<title>4&#45;&gt;2</title>
<path fill="none" stroke="black" d="M142.32,-143.7C139.76,-136.24 136.7,-127.32 133.84,-118.97"/>
<polygon fill="black" stroke="black" points="137.16,-117.86 130.61,-109.54 130.54,-120.13 137.16,-117.86"/>
</g>
<!-- 5 -->
<g id="node6" class="node">
<title>5</title>
<polygon fill="none" stroke="black" points="316.25,-180 210.25,-180 210.25,-144 316.25,-144 316.25,-180"/>
<text text-anchor="middle" x="263.25" y="-156.95" font-family="Times,serif" font-size="14.00">timesheet&#45;server</text>
</g>
</g>
</svg>
