<?xml version="1.0" encoding="UTF-8" standalone="no"?>
<!DOCTYPE svg PUBLIC "-//W3C//DTD SVG 1.1//EN"
 "http://www.w3.org/Graphics/SVG/1.1/DTD/svg11.dtd">
<!-- Generated by graphviz version 12.2.1 (20241206.2353)
 -->
<!-- Pages: 1 -->
<svg width="324pt" height="188pt"
 viewBox="0.00 0.00 323.88 188.00" xmlns="http://www.w3.org/2000/svg" xmlns:xlink="http://www.w3.org/1999/xlink">
<g id="graph0" class="graph" transform="scale(1 1) rotate(0) translate(4 184)">
<polygon fill="white" stroke="none" points="-4,4 -4,-184 319.88,-184 319.88,4 -4,4"/>
<!-- 0 -->
<g id="node1" class="node">
<title>0</title>
<polygon fill="none" stroke="black" points="94.25,-36 40.25,-36 40.25,0 94.25,0 94.25,-36"/>
<text text-anchor="middle" x="67.25" y="-12.95" font-family="Times,serif" font-size="14.00">jira</text>
</g>
<!-- 1 -->
<g id="node2" class="node">
<title>1</title>
<polygon fill="none" stroke="black" points="86.5,-180 0,-180 0,-144 86.5,-144 86.5,-180"/>
<text text-anchor="middle" x="43.25" y="-156.95" font-family="Times,serif" font-size="14.00">timesheet&#45;cli</text>
</g>
<!-- 1&#45;&gt;0 -->
<g id="edge1" class="edge">
<title>1&#45;&gt;0</title>
<path fill="none" stroke="black" d="M46.19,-143.59C50.25,-119.61 57.59,-76.14 62.45,-47.42"/>
<polygon fill="black" stroke="black" points="65.89,-48.05 64.11,-37.6 58.99,-46.88 65.89,-48.05"/>
</g>
<!-- 2 -->
<g id="node3" class="node">
<title>2</title>
<polygon fill="none" stroke="black" points="187.75,-108 126.75,-108 126.75,-72 187.75,-72 187.75,-108"/>
<text text-anchor="middle" x="157.25" y="-84.95" font-family="Times,serif" font-size="14.00">worklog</text>
</g>
<!-- 1&#45;&gt;2 -->
<g id="edge2" class="edge">
<title>1&#45;&gt;2</title>
<path fill="none" stroke="black" d="M71.72,-143.52C86.25,-134.6 104.11,-123.63 119.74,-114.03"/>
<polygon fill="black" stroke="black" points="121.16,-117.27 127.85,-109.05 117.5,-111.3 121.16,-117.27"/>
</g>
<!-- 2&#45;&gt;0 -->
<g id="edge3" class="edge">
<title>2&#45;&gt;0</title>
<path fill="none" stroke="black" d="M135,-71.7C123.97,-63.11 110.46,-52.61 98.41,-43.24"/>
<polygon fill="black" stroke="black" points="100.79,-40.65 90.75,-37.28 96.49,-46.18 100.79,-40.65"/>
</g>
<!-- 3 -->
<g id="node4" class="node">
<title>3</title>
<polygon fill="none" stroke="black" points="228.12,-36 112.38,-36 112.38,0 228.12,0 228.12,-36"/>
<text text-anchor="middle" x="170.25" y="-12.95" font-family="Times,serif" font-size="14.00">secure_credentials</text>
</g>
<!-- 2&#45;&gt;3 -->
<g id="edge4" class="edge">
<title>2&#45;&gt;3</title>
<path fill="none" stroke="black" d="M160.46,-71.7C161.83,-64.32 163.47,-55.52 165,-47.25"/>
<polygon fill="black" stroke="black" points="168.41,-48.06 166.8,-37.59 161.53,-46.79 168.41,-48.06"/>
</g>
<!-- 4 -->
<g id="node5" class="node">
<title>4</title>
<polygon fill="none" stroke="black" points="315.88,-180 228.62,-180 228.62,-144 315.88,-144 315.88,-180"/>
<text text-anchor="middle" x="272.25" y="-156.95" font-family="Times,serif" font-size="14.00">timesheet&#45;tui</text>
</g>
<!-- 4&#45;&gt;2 -->
<g id="edge5" class="edge">
<title>4&#45;&gt;2</title>
<path fill="none" stroke="black" d="M243.53,-143.52C228.87,-134.6 210.86,-123.63 195.09,-114.03"/>
<polygon fill="black" stroke="black" points="197.26,-111.26 186.9,-109.05 193.62,-117.24 197.26,-111.26"/>
</g>
<!-- 5 -->
<g id="node6" class="node">
<title>5</title>
<polygon fill="none" stroke="black" points="210.25,-180 104.25,-180 104.25,-144 210.25,-144 210.25,-180"/>
<text text-anchor="middle" x="157.25" y="-156.95" font-family="Times,serif" font-size="14.00">timesheet&#45;server</text>
</g>
<!-- 5&#45;&gt;0 -->
<g id="edge6" class="edge">
<title>5&#45;&gt;0</title>
<path fill="none" stroke="black" d="M143.74,-143.69C135.98,-133.5 126.23,-120.25 118.25,-108 105.15,-87.89 91.7,-64.28 81.91,-46.44"/>
<polygon fill="black" stroke="black" points="85.03,-44.85 77.18,-37.74 78.88,-48.2 85.03,-44.85"/>
</g>
<!-- 5&#45;&gt;2 -->
<g id="edge7" class="edge">
<title>5&#45;&gt;2</title>
<path fill="none" stroke="black" d="M157.25,-143.7C157.25,-136.41 157.25,-127.73 157.25,-119.54"/>
<polygon fill="black" stroke="black" points="160.75,-119.62 157.25,-109.62 153.75,-119.62 160.75,-119.62"/>
</g>
</g>
</svg>
